<?xml version="1.0" encoding="utf-8"?>
<!-- Generator: Adobe Illustrator 27.5.0, SVG Export Plug-In . SVG Version: 6.00 Build 0)  -->
<svg version="1.1" id="Capa_1" xmlns="http://www.w3.org/2000/svg" xmlns:xlink="http://www.w3.org/1999/xlink" x="0px" y="0px"
	 viewBox="0 0 604 379" style="enable-background:new 0 0 604 379;" xml:space="preserve">
<style type="text/css">
	.st0{fill:#FFFFFF;}
</style>
<g>
	<g>
		<g>
			<path class="st0" d="M472.6,222c-1.2,0-2.5,0-3.9,0H472.6z"/>
			<path class="st0" d="M482.7,256.1v0.2h-10.2v-0.2c1.8,0.1,3.4,0.1,4.8,0.1c0.7,0,1.5,0,2.4,0
				C481.6,256.2,482.7,256.1,482.7,256.1z"/>
			<path class="st0" d="M472.6,222c-1.2,0-2.5,0-3.9,0H472.6z"/>
			<path class="st0" d="M482.7,256.2v0.2h-10.2v-0.2c0,0,1.7,0.1,4.8,0.2c0.7,0,1.5,0,2.4,0C480.6,256.3,481.6,256.2,482.7,256.2z"
				/>
		</g>
	</g>
	<g>
		<g>
			<path class="st0" d="M482.7,122.6L482.7,122.6c-1.1,0.1-2.2,0-3.1,0c-1,0-2.2,0-3.5,0c-2.3,0-3.6,0.1-3.6,0.1v-0.2L482.7,122.6
				L482.7,122.6z"/>
			<path class="st0" d="M566.1,185.2c0,0,1.1-6.8-28.4-18.9c-19.7-8-41.3-9.3-53.6-9.3c-0.5,0-1.1,0-1.5,0l0,0h83.5V82
				c0,0,1.1-6.8-28.4-18.9c-24-9.8-50.9-9.6-60.1-9.2c0,0,0,0-0.1,0c-9.2-0.4-36.1-0.5-60,9.2C388,75.1,389.1,82,389.1,82v111.8
				c0,0-1.1,6.8,28.4,18.9c18.5,7.5,38.6,9.2,51.1,9.3h3.9c-1.2,0-2.5,0-3.9,0h-79.5v75c0,0-1.1,6.8,28.4,18.9
				c24,9.8,50.9,9.6,60,9.2c0,0,0,0,0.1,0c9.2,0.4,36.1,0.5,60.1-9.2c29.5-12,28.4-18.9,28.4-18.9V185.2z M522.4,127.9
				c29.5,6.5,36,25.3,36,25.3h-75.7V153c0,0-20.4,1.4-49.9-5c-10.4-2.3-17.9-6.1-23.3-10.1c5.4-4,12.9-7.8,23.3-10.1
				c16.9-3.7,30.9-4.8,39.7-5.1v-0.1h10.2v0.1C491.6,123.1,505.5,124.2,522.4,127.9z M432.9,251.1c-29.5-6.5-36-25.3-36-25.3h75.7
				v0.2c0,0,20.4-1.4,49.9,5c10.4,2.2,17.9,6.1,23.3,10.1c-5.4,4-12.9,7.8-23.3,10.1c-16.9,3.7-30.9,4.8-39.7,5.1v0.2h-10.2v-0.2
				C463.7,255.9,449.8,254.8,432.9,251.1z"/>
			<path class="st0" d="M482.7,122.6v0.2c0,0-1.1-0.1-3.1-0.1c-1,0-2.2,0-3.5,0c-1.1,0-2.3,0-3.6,0.1v-0.1L482.7,122.6L482.7,122.6z
				"/>
		</g>
		<path class="st0" d="M472.6,222c-1.2,0-2.5,0-3.9,0H472.6z"/>
	</g>
</g>
<g id="Z8TOyd.tif">
</g>
</svg>
